<?xml version="1.0" encoding="UTF-8"?>
<svg id="_图层_1" data-name="图层_1" xmlns="http://www.w3.org/2000/svg" version="1.1" viewBox="0 0 128 128">
  <!-- Generator: Adobe Illustrator 29.1.0, SVG Export Plug-In . SVG Version: 2.1.0 Build 142)  -->
  <defs>
    <style>
      .st0 {
        fill: #bcbcbc;
        fill-rule: evenodd;
      }
    </style>
  </defs>
  <path id="_形状结合" data-name="形状结合" class="st0" d="M55.1,42c1.1,0,2.2.6,2.7,1.7l1.1,2.1c.7,1.4,2.1,2.2,3.6,2.2h24.5c1.7,0,3,1.3,3,3v32c0,1.7-1.3,3-3,3h-46c-1.7,0-3-1.3-3-3v-38c0-1.7,1.3-3,3-3h14.1ZM82,54h-36c-1.1,0-2,.9-2,2s.9,2,2,2h36c1.1,0,2-.9,2-2s-.9-2-2-2h0Z"/>
</svg>