<?xml version="1.0" encoding="UTF-8"?>
<svg id="_图层_1" data-name="图层_1" xmlns="http://www.w3.org/2000/svg" version="1.1" viewBox="0 0 128 128">
  <!-- Generator: Adobe Illustrator 29.1.0, SVG Export Plug-In . SVG Version: 2.1.0 Build 142)  -->
  <defs>
    <style>
      .st0 {
        fill: #bcbcbc;
        fill-rule: evenodd;
      }
    </style>
  </defs>
  <g id="_编组-4" data-name="编组-4">
    <path id="_形状结合" data-name="形状结合" class="st0" d="M75.2,64.3c-.5-.4-1.3-.5-1.9,0h0l-26.3,19.7h39c2.2,0,4-1.8,4-4v-1c-.2,0-.3-.2-.4-.3h0l-14.3-14.3h-.1ZM42,44c-2.2,0-4,1.8-4,4v32c0,1.7,1.1,3.2,2.7,3.8l30.3-22.7h.2c2.2-1.6,5.1-1.4,7,.5h0l11.8,11.8v-25.4c0-2.2-1.8-4-4-4h-44ZM51,52c2.2,0,4,1.8,4,4s-1.8,4-4,4-4-1.8-4-4,1.8-4,4-4Z"/>
  </g>
</svg>