<?xml version="1.0" encoding="UTF-8"?>
<svg id="_图层_1" data-name="图层_1" xmlns="http://www.w3.org/2000/svg" version="1.1" viewBox="0 0 128 128">
  <!-- Generator: Adobe Illustrator 29.1.0, SVG Export Plug-In . SVG Version: 2.1.0 Build 142)  -->
  <defs>
    <style>
      .st0 {
        fill: #bcbcbc;
        fill-rule: evenodd;
      }
    </style>
  </defs>
  <g id="_编组-8" data-name="编组-8">
    <g id="_编组" data-name="编组">
      <path id="Fill-2" class="st0" d="M40,45h32.8c2.2,0,4,1.8,4,4v29c0,2.2-1.8,4-4,4h-32.8c-2.2,0-4-1.8-4-4v-29c0-2.2,1.8-4,4-4ZM91,51.1c.6,0,1,.4,1,1h0v22.9c0,.2,0,.4-.2.5-.3.5-.9.6-1.4.3h0l-9.3-5.9v-13.2l9.3-5.5c.2,0,.3-.1.5-.1ZM48,52.6c.6,0,1,.4,1,1v4.6c0,.6-.4,1-1,1h-4.5c-.6,0-1-.4-1-1v-4.6c0-.6.4-1,1-1h4.5Z"/>
    </g>
  </g>
</svg>