<?xml version="1.0" encoding="UTF-8"?>
<svg id="_图层_1" data-name="图层_1" xmlns="http://www.w3.org/2000/svg" version="1.1" viewBox="0 0 128 128">
  <!-- Generator: Adobe Illustrator 29.1.0, SVG Export Plug-In . SVG Version: 2.1.0 Build 142)  -->
  <defs>
    <style>
      .st0 {
        fill: #bcbcbc;
      }
    </style>
  </defs>
  <path id="_形状结合" data-name="形状结合" class="st0" d="M64.3,36c5.4,0,9.7,4.6,9.7,10.4v13.4c0,5.7-4.4,10.3-9.7,10.3h-.5c-5.4,0-9.7-4.6-9.7-10.4v-13.4c0-5.7,4.4-10.3,9.7-10.3h.5ZM62,78h4v12h-4v-12ZM53.2,86h21.5c.7,0,1.2.6,1.2,1.2v1.5c0,.7-.6,1.2-1.2,1.2h-21.5c-.7,0-1.2-.6-1.2-1.2v-1.5c0-.7.6-1.2,1.2-1.2ZM47.7,58c.4,0,.8.3.9.8h0c0,8.8,6.9,15.8,15.4,15.8s15.2-6.8,15.4-15.4v-.3c0-.5.4-.9.9-.9h1.9c.4,0,.8.3.9.8h0c0,10.7-8.5,19.2-19,19.2s-18.8-8.4-19-18.8v-.3c0-.5.4-.9.9-.9h1.9Z"/>
</svg>